<svg width="57" height="48" viewBox="0 0 57 48" fill="none" xmlns="http://www.w3.org/2000/svg">
<g id="34_122671 1">
<g id="layer1">
<g id="g10453">
<g id="g1784">
<g id="g1846">
<g id="Clip path group">
<mask id="mask0_137_1862" style="mask-type:luminance" maskUnits="userSpaceOnUse" x="3" y="3" width="51" height="42">
<g id="clipPath1790">
<path id="path1788" d="M3.22021 3.21959H53.2201V44.7798H3.22021V3.21959Z" fill="white"/>
</g>
</mask>
<g mask="url(#mask0_137_1862)">
<g id="g1844">
<g id="g1794">
<path id="path1792" d="M21.6867 10.0971L9.90478 21.8538L3.22021 14.6242L15.061 3.22018L21.6867 10.0971Z" fill="#1563C8"/>
</g>
<g id="g1798">
<path id="path1796" d="M26.3645 41.3703L28.0021 39.8419C28.2456 39.6152 28.3632 39.2885 28.3632 38.9434C28.3632 38.5151 28.1868 38.0448 27.8341 37.6669C27.1959 36.9867 26.2302 36.844 25.6759 37.3646L23.8872 39.0442C23.8032 38.9686 23.7192 38.8846 23.6353 38.8006L25.2896 37.2555C25.5331 37.0203 25.6591 36.6928 25.6591 36.3401C25.6591 35.9118 25.4828 35.45 25.1301 35.0805C24.4834 34.3918 23.5177 34.2575 22.9718 34.7697L21.2083 36.4241C21.1328 36.3493 21.0572 36.2729 20.9816 36.1973L22.6779 34.6102C22.9215 34.375 23.039 34.0559 23.039 33.7032C23.039 33.2749 22.8627 32.8131 22.51 32.4352C21.8634 31.755 20.8976 31.6122 20.3518 32.1329L18.5547 33.8124C18.4959 33.7536 18.4371 33.6948 18.3783 33.636L20.0662 32.0573C20.3098 31.8305 20.4273 31.503 20.4273 31.1587C20.4273 30.7304 20.251 30.261 19.8983 29.8823C19.2517 29.2021 18.2943 29.0677 17.7401 29.58L15.9682 31.2343C14.2046 29.4792 12.7854 28.0264 12.3236 27.4637C11.2403 26.1369 10.5936 24.4658 10.3921 22.8282V21.9884L21.9053 10.534H22.7451C23.8536 10.8279 24.9789 11.4661 26.0538 12.1799C26.8264 12.7006 27.5654 13.2716 28.1952 13.7839C26.1966 15.5138 19.7471 22.8114 18.8654 23.5672C17.8828 24.3902 17.7485 24.8101 18.4371 25.7926C19.1257 26.7667 20.2426 27.0523 22.3336 26.0865C24.4247 25.1208 26.7004 23.0298 27.9013 21.8541C29.3457 20.4517 31.0504 20.099 32.3017 20.8044C33.343 21.3838 39.1374 26.8927 41.0269 28.7066C41.9255 29.7983 42.6141 30.6381 42.9752 31.0496C43.4119 31.5534 43.6386 32.1329 43.6302 32.6871C43.563 34.1903 42.295 35.1812 41.0521 35.2148H41.0185C41.0185 35.2148 40.8925 35.2064 40.8506 35.198C40.9093 35.3744 40.9429 35.5591 40.9513 35.7607V35.8782C40.8757 36.6004 40.4811 37.2051 39.9772 37.6585C39.4733 38.1036 38.8351 38.4311 38.1213 38.4395C37.9701 38.4311 37.8274 38.4227 37.6762 38.3891C37.5671 38.3556 37.4831 38.322 37.4159 38.2884C37.4579 38.3975 37.4999 38.5067 37.5335 38.6327C37.5587 38.7502 37.5671 38.8686 37.5671 38.977C37.5503 39.6992 37.1808 40.287 36.7273 40.7489C36.257 41.194 35.6944 41.5467 35.0226 41.5979H34.9722C34.6447 41.5719 34.5187 41.4879 34.3087 41.3955C34.25 41.3703 34.1912 41.3367 34.1408 41.3031C34.2332 41.4879 34.3339 41.5803 34.3591 41.9582C34.3591 42.0589 34.3003 42.2437 34.3003 42.2437C33.7041 43.6797 32.7552 44.7546 31.4451 44.7798C31.0924 44.763 30.9077 44.6538 30.6641 44.5446C30.4206 44.4187 30.1603 44.2591 29.8832 44.0744C29.3289 43.7049 28.6823 43.2178 28.0693 42.7391C27.4142 42.2353 26.8012 41.7398 26.3645 41.3703Z" fill="#E6F1FE"/>
</g>
<g id="g1802">
<path id="path1800" d="M41.64 3.61426L53.2205 15.2871L46.4351 22.0136L34.5188 10.3996L41.64 3.61426Z" fill="#1563C8"/>
</g>
<g id="g1806">
<path id="path1804" d="M44.3525 21.5857C44.3525 21.5857 44.764 22.7026 44.3357 24.5072C43.9158 26.3136 41.6232 29.2687 41.6232 29.2687C41.6232 29.2687 41.4049 29.0588 41.027 28.7061C39.7086 27.0862 37.9282 24.9112 36.1731 22.7689C33.2255 19.1756 30.3703 15.7241 29.5138 14.9255C29.1778 14.624 28.7244 14.2201 28.1953 13.7842C28.3969 13.6079 28.548 13.4895 28.6488 13.4399C29.7657 12.8932 33.5362 12.2139 34.7875 12.3566L44.3525 21.5857Z" fill="#1563C8"/>
</g>
<g id="g1810">
<path id="path1808" d="M36.1728 22.7691C37.928 24.9114 39.7083 27.0864 41.0267 28.7063C39.1372 26.8924 33.3428 21.3844 32.3015 20.8041C31.0502 20.0987 29.3455 20.4514 27.9011 21.8538C26.7002 23.0303 24.4245 25.1213 22.3334 26.0862C20.2424 27.0528 19.1255 26.7673 18.4369 25.7931C17.7483 24.8106 17.8827 24.3907 18.8652 23.5669C19.7469 22.812 26.1964 15.5135 28.195 13.7844C28.7241 14.2203 29.1776 14.6242 29.5135 14.9257C30.37 15.7235 33.2252 19.1758 36.1728 22.7691Z" fill="#1563C8"/>
</g>
<g id="g1814">
<path id="path1812" d="M28.3632 38.9436C28.3632 39.2879 28.2456 39.6154 28.0021 39.8413L26.3645 41.3705C25.9698 41.0514 25.7179 40.8415 25.7179 40.8331L25.6843 40.8079C25.6843 40.8079 24.9705 40.1109 23.8872 39.0444L25.6759 37.3648C26.2302 36.8442 27.1959 36.9869 27.8341 37.6663C28.1868 38.0451 28.3632 38.5145 28.3632 38.9436Z" fill="#1563C8"/>
</g>
<g id="g1818">
<path id="path1816" d="M26.3644 41.3703L24.5589 43.0675C24.0047 43.5789 23.039 43.4446 22.4007 42.7559C22.048 42.3864 21.8633 41.9162 21.8633 41.4963C21.8633 41.1436 21.9892 40.8161 22.2328 40.5893L23.8871 39.0442C24.9704 40.1107 25.6842 40.8077 25.6842 40.8077L25.7178 40.8329C25.7178 40.8413 25.9698 41.0512 26.3644 41.3703Z" fill="#1563C8"/>
</g>
<g id="g1822">
<path id="path1820" d="M25.6588 36.3398C25.6588 36.6925 25.5328 37.0209 25.2893 37.2552L23.6349 38.8012C22.9379 38.1202 22.1066 37.3056 21.208 36.4247L22.9715 34.7695C23.5174 34.2581 24.4831 34.3924 25.1297 35.0802C25.4824 35.4497 25.6588 35.9116 25.6588 36.3398Z" fill="#1563C8"/>
</g>
<g id="g1826">
<path id="path1824" d="M23.6354 38.8009L21.8467 40.4712C21.3008 40.9919 20.3351 40.8491 19.6885 40.1698C19.3358 39.7919 19.1594 39.33 19.1594 38.9009C19.1594 38.5574 19.277 38.2291 19.5289 37.9948L21.2085 36.4244C22.107 37.3061 22.9384 38.1199 23.6354 38.8009Z" fill="#1563C8"/>
</g>
<g id="g1830">
<path id="path1828" d="M23.0388 33.7033C23.0388 34.056 22.9212 34.3751 22.6777 34.6102L20.9814 36.1974C20.5111 35.7355 20.0324 35.2652 19.5454 34.7866C19.2179 34.4591 18.882 34.14 18.5544 33.8124L20.3515 32.1329C20.8974 31.6122 21.8631 31.755 22.5098 32.4352C22.8625 32.8123 23.0388 33.275 23.0388 33.7033Z" fill="#1563C8"/>
</g>
<g id="g1834">
<path id="path1832" d="M20.9814 36.1972L19.2347 37.8347C18.6805 38.3478 17.7147 38.2126 17.0765 37.524C16.7238 37.1461 16.5391 36.6842 16.5391 36.256C16.5391 35.9117 16.665 35.585 16.9086 35.349L18.5545 33.8122C18.882 34.1397 19.2179 34.4597 19.5454 34.7864C20.0325 35.2659 20.5112 35.7353 20.9814 36.1972Z" fill="#1563C8"/>
</g>
<g id="g1838">
<path id="path1836" d="M20.4272 31.1585C20.4272 31.5028 20.3096 31.8304 20.0661 32.0571L18.3782 33.6359C17.5468 32.8129 16.7238 31.9899 15.968 31.2341L17.7399 29.5798C18.2942 29.0675 19.2515 29.2019 19.8981 29.8821C20.2508 30.2608 20.4272 30.7303 20.4272 31.1585Z" fill="#1563C8"/>
</g>
<g id="g1842">
<path id="path1840" d="M18.3782 33.6363L16.6147 35.2822C16.0688 35.8029 15.1031 35.6601 14.4648 34.9799C14.1121 34.602 13.9358 34.1317 13.9358 33.7034C13.9358 33.3591 14.0534 33.0316 14.2969 32.8049L15.968 31.2345C16.7238 31.9903 17.5468 32.8133 18.3782 33.6363Z" fill="#1563C8"/>
</g>
</g>
</g>
</g>
</g>
</g>
<g id="g1848">
<path id="path1850" d="M9.90478 21.8538L3.22021 14.6242L15.061 3.22018L21.6867 10.0971L9.90478 21.8538Z" stroke="#1563C8" stroke-width="2.66667" stroke-miterlimit="10" stroke-linecap="round" stroke-linejoin="round"/>
</g>
<g id="g1852">
<path id="path1854" d="M28.195 13.7842C27.5652 13.2719 26.8262 12.7009 26.0536 12.1802C24.9787 11.4656 23.8534 10.8274 22.7449 10.5343" stroke="#1563C8" stroke-width="2.66667" stroke-miterlimit="10" stroke-linecap="round" stroke-linejoin="round"/>
</g>
<g id="g1856">
<path id="path1858" d="M26.3645 41.3703C26.8012 41.7398 27.4142 42.2353 28.0692 42.7391C28.6823 43.2178 29.3289 43.7049 29.8831 44.0744C30.1603 44.2591 30.4206 44.4187 30.6641 44.5446C30.9077 44.6538 31.0924 44.763 31.4451 44.7798C32.7551 44.7546 33.7041 43.6797 34.3003 42.2437C34.3003 42.2437 34.3591 42.0589 34.3591 41.9582C34.3339 41.5803 34.2331 41.4879 34.1408 41.3031C34.1912 41.3367 34.2499 41.3703 34.3087 41.3955C34.5187 41.4879 34.6446 41.5719 34.9721 41.5979H35.0225C35.6943 41.5467 36.257 41.194 36.7273 40.7489C37.1807 40.287 37.5502 39.6992 37.567 38.977C37.567 38.8686 37.5586 38.7502 37.5334 38.6327C37.4998 38.5067 37.4579 38.3975 37.4159 38.2884C37.4831 38.322 37.567 38.3556 37.6762 38.3891C37.8274 38.4227 37.9701 38.4311 38.1213 38.4395C38.8351 38.4311 39.4733 38.1036 39.9772 37.6585C40.481 37.2051 40.8757 36.6004 40.9513 35.8782V35.7607C40.9429 35.5591 40.9093 35.3744 40.8505 35.198C40.8925 35.2064 41.0185 35.2148 41.0185 35.2148H41.0521C42.2949 35.1812 43.563 34.1903 43.6302 32.6871C43.6386 32.1329 43.4118 31.5534 42.9751 31.0496C42.614 30.6381 41.9254 29.7983 41.0269 28.7066" stroke="#1563C8" stroke-width="2.66667" stroke-miterlimit="10" stroke-linecap="round" stroke-linejoin="round"/>
</g>
<g id="g1860">
<path id="path1862" d="M23.6353 38.801C23.7192 38.8849 23.8032 38.9681 23.8872 39.0445" stroke="#1563C8" stroke-width="2.66667" stroke-miterlimit="10" stroke-linecap="round" stroke-linejoin="round"/>
</g>
<g id="g1864">
<path id="path1866" d="M20.9814 36.1972C21.057 36.2727 21.1326 36.3492 21.2082 36.4247" stroke="#1563C8" stroke-width="2.66667" stroke-miterlimit="10" stroke-linecap="round" stroke-linejoin="round"/>
</g>
<g id="g1868">
<path id="path1870" d="M18.3779 33.636C18.4367 33.6948 18.4955 33.7536 18.5543 33.8124" stroke="#1563C8" stroke-width="2.66667" stroke-miterlimit="10" stroke-linecap="round" stroke-linejoin="round"/>
</g>
<g id="g1872">
<path id="path1874" d="M10.3921 22.8281C10.5936 24.4657 11.2403 26.1368 12.3236 27.4645C12.7854 28.0263 14.2046 29.4791 15.9682 31.2342" stroke="#1563C8" stroke-width="2.66667" stroke-miterlimit="10" stroke-linecap="round" stroke-linejoin="round"/>
</g>
<g id="g1876">
<path id="path1878" d="M41.0267 28.7065C41.4046 29.0592 41.6229 29.2692 41.6229 29.2692C41.6229 29.2692 43.9155 26.3132 44.3354 24.5077C44.7637 22.703 44.3522 21.5861 44.3522 21.5861L34.7872 12.3562C33.536 12.2134 29.7654 12.8937 28.6485 13.4395C28.5477 13.4899 28.3966 13.6083 28.195 13.7838C26.1964 15.5137 19.7469 22.8113 18.8652 23.5671C17.8827 24.3901 17.7483 24.81 18.4369 25.7925C19.1255 26.7667 20.2424 27.0522 22.3334 26.0864C24.4245 25.1207 26.7002 23.0297 27.9011 21.854C29.3455 20.4516 31.0502 20.0989 32.3015 20.8043C33.3428 21.3837 39.1372 26.8926 41.0267 28.7065Z" stroke="#1563C8" stroke-width="2.66667" stroke-miterlimit="10" stroke-linecap="round" stroke-linejoin="round"/>
</g>
<g id="g1880">
<path id="path1882" d="M18.3782 33.6363L16.6147 35.2822C16.0688 35.8029 15.1031 35.6601 14.4648 34.9799C14.1121 34.602 13.9358 34.1317 13.9358 33.7034C13.9358 33.3591 14.0534 33.0316 14.2969 32.8049L15.968 31.2345L17.7399 29.5802C18.2942 29.0679 19.2515 29.2023 19.8982 29.8825C20.2509 30.2604 20.4272 30.7307 20.4272 31.1589C20.4272 31.5032 20.3096 31.8308 20.0661 32.0575L18.3782 33.6363Z" stroke="#1563C8" stroke-width="2.66667" stroke-miterlimit="10" stroke-linecap="round" stroke-linejoin="round"/>
</g>
<g id="g1884">
<path id="path1886" d="M20.9814 36.1972L19.2347 37.8347C18.6805 38.3478 17.7147 38.2126 17.0765 37.524C16.7238 37.1461 16.5391 36.6842 16.5391 36.256C16.5391 35.9117 16.665 35.585 16.9086 35.349L18.5545 33.8122L20.3516 32.1327C20.8975 31.612 21.8632 31.7548 22.5098 32.4358C22.8625 32.8129 23.0389 33.2756 23.0389 33.7031C23.0389 34.0558 22.9213 34.3749 22.6778 34.61L20.9814 36.1972Z" stroke="#1563C8" stroke-width="2.66667" stroke-miterlimit="10" stroke-linecap="round" stroke-linejoin="round"/>
</g>
<g id="g1888">
<path id="path1890" d="M23.6352 38.8009L21.8464 40.4712C21.3006 40.9919 20.3349 40.8491 19.6882 40.1698C19.3355 39.7919 19.1592 39.33 19.1592 38.9009C19.1592 38.5574 19.2767 38.2291 19.5287 37.9948L21.2082 36.4244L22.9717 34.7692C23.5176 34.2578 24.4833 34.3921 25.1299 35.0799C25.4826 35.4503 25.659 35.9121 25.659 36.3396C25.659 36.6923 25.533 37.0206 25.2895 37.2549L23.6352 38.8009Z" stroke="#1563C8" stroke-width="2.66667" stroke-miterlimit="10" stroke-linecap="round" stroke-linejoin="round"/>
</g>
<g id="g1892">
<path id="path1894" d="M26.3644 41.3703L24.5589 43.0675C24.0047 43.5789 23.039 43.4446 22.4007 42.7559C22.048 42.3864 21.8633 41.9162 21.8633 41.4963C21.8633 41.1436 21.9892 40.8161 22.2328 40.5893L23.8871 39.0442L25.6758 37.3646C26.2301 36.844 27.1958 36.9867 27.834 37.6669C28.1867 38.0448 28.3631 38.5151 28.3631 38.9434C28.3631 39.2885 28.2455 39.6152 28.002 39.8419L26.3644 41.3703Z" stroke="#1563C8" stroke-width="2.66667" stroke-miterlimit="10" stroke-linecap="round" stroke-linejoin="round"/>
</g>
<g id="g1896">
<path id="path1898" d="M34.5186 10.3997L41.6398 3.61438L53.2202 15.2872L46.4349 22.0137L34.5186 10.3997Z" stroke="#1563C8" stroke-width="2.66667" stroke-miterlimit="10" stroke-linecap="round" stroke-linejoin="round"/>
</g>
</g>
</g>
</g>
</svg>
