<svg width="46" height="46" viewBox="0 0 46 46" fill="none" xmlns="http://www.w3.org/2000/svg">
<g id="Group">
<path id="Vector" d="M41.5972 26.5878V44.5674C41.5972 45.356 40.953 45.9999 40.1647 45.9999H1.43249C0.643909 45.9999 0 45.356 0 44.5674V5.83545C0 5.04686 0.643909 4.40295 1.43249 4.40295H19.412C20.0427 4.40295 20.5948 4.82351 20.7656 5.40195C20.8181 5.53342 20.8445 5.6781 20.8445 5.83571L20.8052 23.7231C20.8052 24.5117 21.4359 25.1556 22.2245 25.1556H40.1644C40.322 25.1556 40.4667 25.1817 40.5982 25.2345C41.1766 25.4051 41.5972 25.9571 41.5972 26.5878Z" fill="#1563C8"/>
<path id="Vector_2" d="M46 1.43249V19.3727C46 20.1613 45.3561 20.8052 44.5675 20.8052H26.6276C25.839 20.8052 25.1951 20.1613 25.1951 19.3727V1.43249C25.1948 0.643909 25.839 0 26.6276 0H44.5675C45.3561 0 46 0.643909 46 1.43249Z" fill="#1563C8"/>
</g>
</svg>
